<svg width="38" height="33" viewBox="0 0 38 33" fill="none" xmlns="http://www.w3.org/2000/svg">
<path d="M18.8869 32.992C17.5281 32.9908 16.2254 32.4501 15.2652 31.4887L3.97315 20.2137C2.16448 18.449 0.90161 16.2013 0.335177 13.7387C-0.231256 11.2761 -0.077339 8.70249 0.778569 6.32494C1.30452 4.6987 2.27113 3.25017 3.57096 2.14034C4.87079 1.03051 6.45291 0.302859 8.14149 0.038274C10.2385 -0.118021 12.3392 0.287035 14.2278 1.21179C16.1163 2.13655 17.7245 3.54763 18.8869 5.29994C20.0321 3.53869 21.6321 2.11984 23.5177 1.19358C25.4033 0.267328 27.5042 -0.131861 29.5982 0.038274C31.2929 0.296991 32.8822 1.02199 34.1886 2.1322C35.4949 3.24242 36.4667 4.6941 36.9952 6.32494C37.8511 8.70249 38.0051 11.2761 37.4386 13.7387C36.8722 16.2013 35.6093 18.449 33.8007 20.2137L22.5086 31.4887C21.5484 32.4501 20.2457 32.9908 18.8869 32.992ZM9.38857 3.36952C9.12692 3.35199 8.86439 3.35199 8.60273 3.36952C7.51873 3.56252 6.51047 4.05531 5.69221 4.79204C4.87396 5.52877 4.27844 6.47998 3.97315 7.53786C3.34553 9.29828 3.24061 11.2027 3.67104 13.0214C4.10147 14.8401 5.04887 16.4955 6.39898 17.7879L17.674 29.0799C17.8328 29.2401 18.0217 29.3672 18.2299 29.4539C18.4381 29.5406 18.6614 29.5853 18.8869 29.5853C19.1124 29.5853 19.3357 29.5406 19.5439 29.4539C19.7521 29.3672 19.941 29.2401 20.0998 29.0799L31.3748 17.7879C32.7249 16.4955 33.6723 14.8401 34.1028 13.0214C34.5332 11.2027 34.4283 9.29828 33.8007 7.53786C33.4846 6.48494 32.8804 5.5414 32.0562 4.81387C31.2321 4.08633 30.2209 3.60379 29.1369 3.42077C27.6418 3.34298 26.153 3.6643 24.8231 4.35177C23.4932 5.03924 22.3701 6.06812 21.569 7.33286C21.2501 7.75074 20.8392 8.08942 20.368 8.32254C19.8969 8.55566 19.3784 8.67694 18.8527 8.67694C18.3271 8.67694 17.8085 8.55566 17.3374 8.32254C16.8663 8.08942 16.4553 7.75074 16.1365 7.33286C15.3938 6.19637 14.3981 5.24719 13.2275 4.55961C12.0568 3.87203 10.7429 3.4647 9.38857 3.36952Z" fill="#CB840B"/>
</svg>
