<svg width="39" height="39" viewBox="0 0 39 39" fill="none" xmlns="http://www.w3.org/2000/svg">
<path d="M33.9326 4.50361C32.5069 3.07365 30.8126 1.93963 28.9471 1.16674C27.0816 0.393847 25.0818 -0.00265955 23.0625 1.56452e-05C21.0432 -0.00287033 19.0433 0.39354 17.1778 1.16644C15.3122 1.93934 13.618 3.07348 12.1924 4.50361C10.7622 5.92949 9.62797 7.62398 8.85487 9.48968C8.08176 11.3554 7.68504 13.3555 7.68751 15.375C7.68751 16.7139 7.87713 18.0067 8.19744 19.2444C8.0296 19.2329 7.86048 19.2188 7.68751 19.2188C6.67785 19.2177 5.67793 19.4161 4.7452 19.8026C3.81248 20.1892 2.96533 20.7562 2.25244 21.4712C1.53729 22.184 0.970125 23.0311 0.583565 23.9638C0.197005 24.8966 -0.00131726 25.8966 6.58422e-06 26.9063C6.58422e-06 29.1536 0.861006 31.1895 2.25244 32.6616L7.68751 38.4375V34.5938C8.69716 34.5949 9.69708 34.3965 10.6298 34.0099C11.5625 33.6234 12.4097 33.0563 13.1226 32.3413C14.1582 31.3054 14.8758 29.9948 15.1905 28.5642C17.5675 29.9938 20.2888 30.7494 23.0625 30.75V38.4375L33.9326 26.8858C36.7155 23.9402 38.4375 19.8696 38.4375 15.375C38.4375 11.129 36.7155 7.28648 33.9326 4.50361ZM32.0659 25.1292L25.625 31.9749V28.1875H23.0625C20.1925 28.1875 17.475 27.2394 15.2418 25.5097C14.9613 23.9798 14.2222 22.5713 13.1226 21.4712C12.5399 20.8924 11.8686 20.4101 11.1341 20.0426C10.5506 18.5556 10.2507 16.9724 10.25 15.375C10.2456 13.6917 10.5752 12.0242 11.2196 10.4691C11.8639 8.91402 12.8104 7.50217 14.0041 6.3153C16.4231 3.89502 19.6403 2.56252 23.0625 2.56252C26.4847 2.56252 29.7019 3.89502 32.1209 6.31658C33.3148 7.50309 34.2613 8.91469 34.9057 10.4696C35.5501 12.0245 35.8796 13.6919 35.875 15.375C35.875 19.0663 34.5233 22.5282 32.0659 25.1292Z" fill="#CB840B"/>
</svg>
