<svg width="41" height="41" viewBox="0 0 41 41" fill="none" xmlns="http://www.w3.org/2000/svg">
<path d="M17.9345 0C8.04492 0 0 8.04492 0 17.9345C0 27.8242 8.04492 35.8691 17.9345 35.8691C22.4182 35.8691 26.5124 34.2012 29.6586 31.47L38.7975 40.6089C38.9157 40.7313 39.0571 40.8289 39.2133 40.896C39.3696 40.9631 39.5377 40.9985 39.7078 41C39.8779 41.0014 40.0466 40.969 40.204 40.9046C40.3615 40.8402 40.5045 40.7451 40.6248 40.6248C40.7451 40.5045 40.8402 40.3615 40.9046 40.204C40.969 40.0466 41.0014 39.8779 41 39.7078C40.9985 39.5377 40.9631 39.3696 40.896 39.2133C40.8289 39.0571 40.7313 38.9157 40.6089 38.7975L31.47 29.6586C34.305 26.4106 35.8677 22.2458 35.8691 17.9345C35.8691 8.04492 27.8242 0 17.9345 0ZM17.9345 2.56208C26.4406 2.56208 33.307 9.42844 33.307 17.9345C33.307 26.4406 26.4406 33.307 17.9345 33.307C9.42844 33.307 2.56208 26.4406 2.56208 17.9345C2.56208 9.42844 9.42844 2.56208 17.9345 2.56208Z" fill="#CB840B"/>
</svg>
